<?xml version="1.0" encoding="utf-8"?>
<!-- Generator: Adobe Illustrator 16.0.0, SVG Export Plug-In . SVG Version: 6.00 Build 0)  -->
<!DOCTYPE svg PUBLIC "-//W3C//DTD SVG 1.1//EN" "http://www.w3.org/Graphics/SVG/1.1/DTD/svg11.dtd">
<svg version="1.1" id="图层_1" xmlns="http://www.w3.org/2000/svg" xmlns:xlink="http://www.w3.org/1999/xlink" x="0px" y="0px"
	 width="618px" height="386px" viewBox="0 0 618 386" enable-background="new 0 0 618 386" xml:space="preserve">
<g opacity="0.5">
	<g>
		<path fill="#EAEAEA" d="M124.323,45.564h22.096c2.941,0,5.327-2.383,5.327-5.326v-4.295c0-2.941-2.385-5.325-5.327-5.325h-22.096
			c-2.941,0-5.327,2.384-5.327,5.325v4.295C118.999,43.181,121.381,45.564,124.323,45.564z"/>
		<path fill="#EAEAEA" d="M85.339,45.564h22.096c2.941,0,5.325-2.383,5.325-5.326v-4.295c0-2.941-2.384-5.325-5.325-5.325H85.339
			c-2.942,0-5.327,2.384-5.327,5.325v4.295C80.012,43.181,82.396,45.564,85.339,45.564z"/>
		<path fill="#EAEAEA" d="M105.198,63.172h22.097c2.94,0,5.325-2.384,5.325-5.326v-4.294c0-2.941-2.384-5.325-5.325-5.325h-22.097
			c-2.941,0-5.325,2.384-5.325,5.325v4.294C99.874,60.788,102.257,63.172,105.198,63.172z"/>
		<path fill="#EAEAEA" d="M64.902,63.172h22.096c2.941,0,5.325-2.384,5.325-5.326v-4.294c0-2.941-2.383-5.325-5.325-5.325H64.902
			c-2.94,0-5.328,2.384-5.328,5.325v4.294C59.575,60.788,61.962,63.172,64.902,63.172z"/>
		<path fill="#EAEAEA" d="M46.354,45.564h22.097c2.941,0,5.324-2.383,5.324-5.326v-4.295c0-2.941-2.383-5.325-5.324-5.325H46.354
			c-2.941,0-5.325,2.384-5.325,5.325v4.295C41.027,43.181,43.411,45.564,46.354,45.564z"/>
	</g>
	<g>
		<path fill="#EAEAEA" d="M447.064,40.149h22.098c2.941,0,5.326-2.382,5.326-5.323v-4.293c0-2.944-2.385-5.327-5.326-5.327h-22.098
			c-2.939,0-5.322,2.383-5.322,5.327v4.293C441.742,37.768,444.125,40.149,447.064,40.149z"/>
		<path fill="#EAEAEA" d="M466.926,57.758h22.098c2.939,0,5.324-2.385,5.324-5.328v-4.293c0-2.94-2.383-5.325-5.324-5.325h-22.098
			c-2.939,0-5.322,2.385-5.322,5.325v4.293C461.604,55.374,463.984,57.758,466.926,57.758z"/>
		<path fill="#EAEAEA" d="M426.629,57.758h22.098c2.941,0,5.324-2.385,5.324-5.328v-4.293c0-2.94-2.383-5.325-5.324-5.325h-22.098
			c-2.941,0-5.326,2.385-5.326,5.325v4.293C421.305,55.374,423.688,57.758,426.629,57.758z"/>
		<path fill="#EAEAEA" d="M398.004,40.149H420.1c2.938,0,5.326-2.382,5.326-5.323v-4.293c0-2.944-2.387-5.327-5.326-5.327h-22.096
			c-2.941,0-5.326,2.383-5.326,5.327v4.293C392.678,37.768,395.063,40.149,398.004,40.149z"/>
	</g>
	<g>
		<path fill="#EAEAEA" d="M282.211,200.384h22.096c2.94,0,5.326-2.385,5.326-5.326v-4.295c0-2.941-2.385-5.325-5.326-5.325h-22.096
			c-2.939,0-5.323,2.382-5.323,5.325v4.295C276.888,197.999,279.271,200.384,282.211,200.384z"/>
		<path fill="#EAEAEA" d="M302.071,217.989h22.097c2.939,0,5.322-2.382,5.322-5.323v-4.294c0-2.938-2.381-5.325-5.322-5.325h-22.097
			c-2.941,0-5.323,2.387-5.323,5.325v4.294C296.747,215.607,299.129,217.989,302.071,217.989z"/>
		<path fill="#EAEAEA" d="M261.773,217.989h22.098c2.943,0,5.326-2.382,5.326-5.323v-4.294c0-2.938-2.383-5.325-5.326-5.325h-22.098
			c-2.938,0-5.325,2.387-5.325,5.325v4.294C256.449,215.607,258.836,217.989,261.773,217.989z"/>
		<path fill="#EAEAEA" d="M233.148,200.384h22.096c2.94,0,5.326-2.385,5.326-5.326v-4.295c0-2.941-2.386-5.325-5.326-5.325h-22.096
			c-2.942,0-5.327,2.382-5.327,5.325v4.295C227.823,197.999,230.208,200.384,233.148,200.384z"/>
	</g>
	<g>
		<path fill="#EAEAEA" d="M549.459,156.466h22.096c2.941,0,5.326-2.383,5.326-5.325v-4.295c0-2.941-2.383-5.326-5.326-5.326h-22.096
			c-2.939,0-5.326,2.384-5.326,5.326v4.295C544.135,154.083,546.516,156.466,549.459,156.466z"/>
		<path fill="#EAEAEA" d="M510.475,156.466h22.096c2.939,0,5.322-2.383,5.322-5.325v-4.295c0-2.941-2.381-5.326-5.322-5.326h-22.096
			c-2.941,0-5.328,2.384-5.328,5.326v4.295C505.148,154.083,507.533,156.466,510.475,156.466z"/>
		<path fill="#EAEAEA" d="M530.334,174.073h22.098c2.939,0,5.324-2.384,5.324-5.325v-4.294c0-2.939-2.383-5.324-5.324-5.324h-22.098
			c-2.941,0-5.324,2.383-5.324,5.324v4.294C525.01,171.689,527.393,174.073,530.334,174.073z"/>
		<path fill="#EAEAEA" d="M490.037,174.073h22.098c2.939,0,5.324-2.384,5.324-5.325v-4.294c0-2.939-2.385-5.324-5.324-5.324h-22.098
			c-2.939,0-5.324,2.383-5.324,5.324v4.294C484.713,171.689,487.098,174.073,490.037,174.073z"/>
		<path fill="#EAEAEA" d="M471.488,156.466h22.1c2.939,0,5.324-2.383,5.324-5.325v-4.295c0-2.941-2.385-5.326-5.324-5.326h-22.1
			c-2.938,0-5.322,2.384-5.322,5.326v4.295C466.166,154.083,468.547,156.466,471.488,156.466z"/>
	</g>
</g>
<g>
	<polygon fill="#777777" points="200.884,64.116 200.884,59.259 204.339,59.259 204.339,55.934 191.683,55.934 191.683,59.259 
		195.134,59.259 195.134,64.116 183.445,64.116 183.445,69.213 211.328,69.213 211.328,64.116 	"/>
	<path fill="#E2E2E2" d="M214.852,34.384h-29.147c-2.962,0-5.374,2.409-5.374,5.375v12.59c0,2.961,2.411,5.37,5.374,5.37h29.147
		c2.961,0,5.371-2.409,5.371-5.37v-12.59C220.222,36.793,217.812,34.384,214.852,34.384z"/>
	<path fill="#B5B5B5" d="M210.321,34.384h-29.149c-2.962,0-5.371,2.409-5.371,5.375v12.59c0,2.961,2.409,5.37,5.371,5.37h29.149
		c2.958,0,5.368-2.409,5.368-5.37v-12.59C215.688,36.793,213.279,34.384,210.321,34.384z"/>
	<circle fill="#DBDBDB" cx="187.496" cy="46.218" r="7.156"/>
	<circle fill="#FFFFFF" cx="187.496" cy="46.218" r="5.144"/>
	<circle fill="#777777" cx="187.496" cy="46.219" r="2.14"/>
	<circle fill="#FFFFFF" cx="208.089" cy="46.219" r="2.147"/>
	<circle fill="#FFB000" cx="201" cy="46.22" r="1.157"/>
</g>
<rect x="146.248" y="320.198" fill="#9CC9E5" width="83.751" height="40.123"/>
<path fill="#DCF1F9" d="M265.236,373.602c0.327-0.998,0.511-2.059,0.511-3.168c0-5.583-4.527-10.112-10.114-10.112H120.614
	c-5.586,0-10.113,4.529-10.113,10.112c0,1.109,0.183,2.17,0.51,3.168H265.236z"/>
<linearGradient id="SVGID_1_" gradientUnits="userSpaceOnUse" x1="435.7842" y1="-53.1997" x2="435.7842" y2="-275.0088" gradientTransform="matrix(1 0 0 -1 -247.6602 16.04)">
	<stop  offset="0" style="stop-color:#128BEB"/>
	<stop  offset="1" style="stop-color:#126BEB"/>
</linearGradient>
<path fill="url(#SVGID_1_)" d="M375.248,291.049V88.719c0-10.758-8.506-19.479-18.998-19.479H19.998C9.507,69.24,1,77.961,1,88.719
	v202.33H375.248z"/>
<path fill="#FFFFFF" d="M368.039,280.257H8.13V92.936c0,0,0-10.649,8.897-12.046H354.98c14.967,0,13.059,13.093,13.059,13.093
	V280.257z"/>
<path fill="#DCF1F9" d="M1,291.644v21.087c0,10.493,8.505,18.994,18.997,18.994H356.25c10.494,0,18.998-8.501,18.998-18.994v-21.087
	H1z"/>
<g>
	<path fill="#F13249" d="M26.786,94.945c0,1.888-1.536,3.426-3.429,3.426c-1.896,0-3.429-1.539-3.429-3.426
		c0-1.898,1.532-3.438,3.429-3.438C25.25,91.508,26.786,93.046,26.786,94.945z"/>
	<path fill="#FFC836" d="M38.721,94.945c0,1.888-1.535,3.426-3.428,3.426c-1.894,0-3.429-1.539-3.429-3.426
		c0-1.898,1.536-3.438,3.429-3.438C37.186,91.508,38.721,93.046,38.721,94.945z"/>
	<path fill="#37D577" d="M50.791,94.945c0,1.888-1.533,3.426-3.427,3.426s-3.432-1.539-3.432-3.426c0-1.898,1.538-3.438,3.432-3.438
		C49.258,91.508,50.791,93.046,50.791,94.945z"/>
</g>
<g>
	<path fill="#333333" d="M155.775,120.35c0.024,0.412,0.052,0.753,0.083,1.032c-1.266,0.79-2.31,1.477-3.133,2.063l-0.57-0.806
		c0.279-0.239,0.417-0.598,0.417-1.08v-4.697h-1.686v-0.855h2.634v5.765C154.208,121.354,154.96,120.877,155.775,120.35z
		 M152.097,112.153c0.862,0.884,1.488,1.543,1.875,1.968l-0.83,0.701c-0.5-0.656-1.088-1.337-1.769-2.041L152.097,112.153z
		 M154.684,116.078h3.451v-4.08h1.02v4.08h3.475v0.854h-3.475v6.689h-1.02v-6.689h-3.451V116.078z"/>
	<path fill="#333333" d="M164.683,114.987h1.97c-0.294-0.363-0.586-0.703-0.878-1.021l0.426-0.307h-0.997
		c-0.467,0.588-1,1.135-1.602,1.637c-0.175-0.199-0.372-0.401-0.594-0.605c0.971-0.76,1.74-1.684,2.3-2.776h1.009
		c-0.186,0.364-0.391,0.716-0.615,1.056h3.451v0.689h-2.668c0.285,0.289,0.569,0.588,0.854,0.903l-0.563,0.425h5.467
		c-0.3-0.348-0.634-0.689-1.002-1.021l0.409-0.307h-1.181c-0.312,0.477-0.636,0.906-0.972,1.282
		c-0.207-0.183-0.447-0.369-0.723-0.559c0.674-0.704,1.227-1.526,1.662-2.466h1.021c-0.183,0.37-0.368,0.724-0.559,1.054h3.761
		v0.689h-2.705c0.341,0.28,0.654,0.569,0.937,0.865l-0.575,0.462h0.919v5.339h-0.829v-0.392h-6.894v0.392h-0.829v-5.339H164.683
		L164.683,114.987z M163.13,120.908h3.225c0.031-0.226,0.046-0.477,0.046-0.749h0.865c0,0.267-0.015,0.513-0.04,0.749h3.884v-0.736
		h0.877v0.736h2.811v0.734h-2.811v1.994h-0.877v-1.994h-4.009c-0.285,1.064-1.222,1.761-2.813,2.1
		c-0.148-0.245-0.324-0.505-0.521-0.781c1.313-0.221,2.114-0.663,2.408-1.318h-3.047L163.13,120.908L163.13,120.908z
		 M172.405,115.651h-6.891v0.794h6.891V115.651z M165.514,117.857h6.891v-0.794h-6.891V117.857z M165.514,119.268h6.891v-0.793
		h-6.891V119.268z"/>
	<path fill="#333333" d="M175.145,119.399c0.888-1.319,1.517-2.743,1.892-4.269h-1.773v-0.807h1.852v-2.338h0.854v2.338h1.661v0.807
		h-1.661v1.969l0.476-0.476c0.608,0.555,1.086,1.006,1.436,1.352l-0.641,0.654c-0.486-0.538-0.911-0.985-1.27-1.342v6.264h-0.855
		v-6.357c-0.423,1.342-0.948,2.422-1.578,3.249C175.411,120.09,175.281,119.738,175.145,119.399z M181.397,113.646v3.927
		c0,2.831-0.707,4.883-2.122,6.156c-0.222-0.269-0.454-0.538-0.7-0.807c1.25-1.1,1.875-2.809,1.875-5.137v-5.04h4.413v8.92
		c0,0.394,0.138,0.594,0.417,0.594h0.272c0.253,0,0.416-0.221,0.487-0.666c0.079-0.609,0.135-1.265,0.166-1.969
		c0.276,0.134,0.578,0.26,0.903,0.379c-0.071,0.783-0.144,1.423-0.213,1.924c-0.127,0.836-0.53,1.255-1.21,1.255h-0.628
		c-0.761,0-1.14-0.452-1.14-1.351v-8.186H181.397L181.397,113.646z"/>
	<path fill="#333333" d="M187.223,121.677c0.609-0.146,1.199-0.295,1.768-0.438v-3.594h-1.483v-0.832h1.483v-2.965h-1.602v-0.83
		h4.081v0.83h-1.601v2.965h1.506v0.832h-1.506v3.356c0.523-0.146,1.029-0.294,1.52-0.439c0.04,0.357,0.083,0.666,0.13,0.925
		c-1.351,0.364-2.677,0.748-3.973,1.15L187.223,121.677z M190.994,122.378h3.714v-1.708h-3.025v-0.828h3.025v-1.567h-1.899v0.44
		h-0.878v-6.121h6.43v6.121h-0.878v-0.44h-1.898v1.567h3.024v0.828h-3.024v1.708h3.546v0.829h-8.137V122.378L190.994,122.378z
		 M192.81,115.036h1.899v-1.639h-1.899V115.036z M192.81,117.466h1.899v-1.649h-1.899V117.466z M197.482,113.396h-1.898v1.639h1.898
		V113.396z M195.585,117.466h1.898v-1.649h-1.898V117.466z"/>
	<path fill="#333333" d="M203.474,120.752c0.024,0.412,0.051,0.753,0.083,1.022c-0.885,0.593-1.68,1.163-2.383,1.708l-0.557-0.795
		c0.268-0.221,0.402-0.56,0.402-1.021v-4.683h-1.542v-0.878h2.468v5.73C202.41,121.516,202.92,121.155,203.474,120.752z
		 M200.91,112.199c0.861,0.887,1.487,1.542,1.875,1.969l-0.831,0.7c-0.499-0.657-1.088-1.337-1.768-2.04L200.91,112.199z
		 M207.661,112.095l-0.154,0.271c0.942,1.669,2.212,2.9,3.819,3.69c-0.229,0.277-0.459,0.572-0.689,0.888
		c-1.566-1.034-2.784-2.28-3.653-3.736c-0.846,1.4-2.08,2.657-3.701,3.773c-0.23-0.333-0.447-0.609-0.653-0.821
		c1.796-1.06,3.104-2.417,3.926-4.066L207.661,112.095L207.661,112.095z M204.457,116.624h0.95v2.494
		c1.518-0.659,2.76-1.416,3.725-2.277l0.664,0.781c-1.226,0.965-2.688,1.791-4.389,2.479v1.555c0,0.521,0.238,0.782,0.712,0.782
		h2.36c0.569,0,0.9-0.255,0.984-0.76c0.105-0.578,0.176-1.2,0.214-1.875c0.253,0.112,0.575,0.228,0.961,0.344
		c-0.07,0.649-0.158,1.253-0.259,1.814c-0.159,0.918-0.775,1.377-1.851,1.377h-2.693c-0.917,0-1.376-0.504-1.376-1.506v-5.208
		H204.457L204.457,116.624z"/>
	<path fill="#333333" d="M211.86,115.735h4.153v-1.507h-3.181v-0.806h3.181v-1.425h0.925v1.425h2.492v0.806h-2.492v1.507h1.203
		c1.223-0.894,2.354-1.875,3.399-2.944l0.724,0.616c-0.894,0.834-1.798,1.609-2.711,2.328h3.647v0.817h-4.726
		c-0.455,0.333-0.909,0.649-1.364,0.949h5.273v0.808h-5.521l-0.504,1.044h4.758c-0.159,1.343-0.273,2.166-0.345,2.468
		c-0.181,1.019-0.805,1.529-1.873,1.529c-0.799,0-1.665-0.015-2.597-0.046c-0.057-0.34-0.14-0.684-0.25-1.033
		c0.948,0.08,1.839,0.121,2.668,0.121c0.617,0,0.993-0.27,1.126-0.807c0.072-0.293,0.151-0.768,0.238-1.426h-4.661v-0.803
		l0.529-1.044h-0.119c-1.219,0.727-2.451,1.353-3.696,1.883c-0.173-0.298-0.363-0.584-0.569-0.853
		c1.946-0.782,3.741-1.712,5.388-2.787h-5.09L211.86,115.735L211.86,115.735z"/>
	<path fill="#333333" d="M227.448,119.53c0.04,0.443,0.083,0.825,0.131,1.148c-0.53,0.507-1.059,1.031-1.589,1.58
		c-0.247,0.255-0.452,0.496-0.619,0.724l-0.662-0.758c0.275-0.308,0.415-0.688,0.415-1.138v-4.366h-1.375v-0.84h2.276v5.1
		C226.451,120.565,226.925,120.084,227.448,119.53z M224.909,112.245c0.711,0.698,1.336,1.354,1.874,1.972l-0.781,0.676
		c-0.5-0.656-1.089-1.337-1.768-2.042L224.909,112.245z M226.996,121.938c0.597-0.08,1.222-0.169,1.874-0.272v-3.677h-1.696v-0.842
		h4.106v0.842h-1.532v3.541c0.621-0.102,1.265-0.216,1.935-0.337c-0.018,0.315-0.023,0.624-0.023,0.925
		c-1.73,0.276-3.208,0.526-4.426,0.747L226.996,121.938z M227.209,114.323h4.331c-0.008-0.735-0.012-1.527-0.012-2.384h0.937
		c-0.017,0.942-0.02,1.734-0.013,2.384h2.929v0.865h-2.911c0.079,3.346,0.453,5.622,1.123,6.833
		c0.245,0.414,0.451,0.618,0.617,0.618c0.135,0,0.227-0.159,0.283-0.476c0.079-0.483,0.139-1.109,0.179-1.883
		c0.34,0.134,0.637,0.236,0.891,0.307c-0.104,0.892-0.202,1.574-0.298,2.041c-0.126,0.664-0.458,0.995-0.994,0.995
		c-0.445,0-0.883-0.304-1.319-0.913c-0.807-1.171-1.269-3.675-1.386-7.521h-4.354v-0.865H227.209z M232.915,112.768l0.547-0.569
		c0.632,0.467,1.133,0.876,1.506,1.233l-0.652,0.664C233.878,113.63,233.414,113.187,232.915,112.768z"/>
</g>
<path fill="#EFEFEF" d="M257.634,133.051c0,1.385-1.123,2.506-2.507,2.506H131.322c-1.384,0-2.506-1.121-2.506-2.506l0,0
	c0-1.385,1.123-2.506,2.506-2.506h123.805C256.51,130.545,257.634,131.666,257.634,133.051L257.634,133.051z"/>
<circle fill="#FFFFFF" cx="188.123" cy="310.168" r="9.928"/>
<g>
	<rect x="72.694" y="147.157" fill="#EAEAEA" width="238.988" height="88.21"/>
	
		<linearGradient id="SVGID_2_" gradientUnits="userSpaceOnUse" x1="439.8477" y1="-289.4692" x2="439.8477" y2="-202.1276" gradientTransform="matrix(1 0 0 -1 -247.6602 16.04)">
		<stop  offset="0" style="stop-color:#0D71D6"/>
		<stop  offset="1" style="stop-color:#009CFF"/>
	</linearGradient>
	<rect x="72.694" y="234.652" fill="url(#SVGID_2_)" width="238.988" height="27.373"/>
</g>
<g>
	<path fill="#FFFFFF" d="M153.192,248.952c0.573-0.162,1.181-0.339,1.821-0.528v-2.702h-1.688v-0.826h1.688v-2.332h0.912v2.332
		h1.432v0.826h-1.432v2.424c0.45-0.141,0.914-0.29,1.396-0.443c-0.016,0.306-0.022,0.619-0.022,0.934
		c-0.449,0.145-0.91,0.288-1.373,0.44v3.888c0,0.851-0.389,1.286-1.168,1.313c-0.306,0.017-0.716,0.017-1.226,0
		c-0.048-0.358-0.104-0.695-0.169-1.006c0.437,0.045,0.83,0.074,1.178,0.074c0.315,0,0.473-0.18,0.473-0.537v-3.425
		c-0.554,0.186-1.12,0.383-1.689,0.578L153.192,248.952z M157.893,244.191h1.913c0.255-0.563,0.467-1.169,0.637-1.813l1.009,0.247
		c-0.228,0.569-0.448,1.092-0.667,1.566h3.802v10.144h-0.922v-0.794h-4.848v0.794h-0.924V244.191L157.893,244.191z M163.664,245.014
		h-4.848v3.393h4.848V245.014z M158.815,252.741h4.848v-3.508h-4.848V252.741z"/>
	<path fill="#FFFFFF" d="M167.113,251.392l0.864,0.331c-0.31,0.754-0.746,1.638-1.313,2.659c-0.277-0.13-0.563-0.257-0.863-0.388
		C166.401,252.989,166.837,252.123,167.113,251.392z M166.421,243.102h3.911v7.929h-0.899v-0.463h-2.113v0.546h-0.9L166.421,243.102
		L166.421,243.102L166.421,243.102z M169.434,243.924h-2.115v2.451h2.115V243.924z M167.319,249.74h2.115v-2.54h-2.115V249.74
		L167.319,249.74z M169.178,251.929l0.802-0.364c0.444,0.803,0.822,1.553,1.129,2.258l-0.875,0.39
		C169.942,253.489,169.592,252.728,169.178,251.929z M171.195,243.85v-0.803h5.879c-0.032,0.854-0.071,1.584-0.123,2.201
		c-0.081,1.009-0.607,1.519-1.578,1.519c-0.322,0-0.801-0.016-1.435-0.038c-0.046-0.302-0.11-0.617-0.181-0.958
		c0.64,0.081,1.127,0.118,1.458,0.118c0.519,0,0.8-0.23,0.837-0.7c0.05-0.576,0.074-1.024,0.074-1.336h-2.556
		c-0.022,1.629-0.772,2.853-2.255,3.683c-0.185-0.247-0.395-0.486-0.631-0.719c1.336-0.704,1.999-1.69,1.992-2.964L171.195,243.85
		L171.195,243.85z M171.608,247.383h5.405v3.743h-0.898v-0.377h-3.609v0.377h-0.897L171.608,247.383L171.608,247.383z
		 M172.301,251.843l0.799-0.349c0.44,0.735,0.829,1.458,1.169,2.182l-0.863,0.416C173.048,253.282,172.68,252.53,172.301,251.843z
		 M176.114,248.164h-3.609v1.811h3.609V248.164z M175.241,251.744l0.777-0.462c0.567,0.779,1.077,1.561,1.532,2.345l-0.851,0.498
		C176.261,253.326,175.774,252.53,175.241,251.744z"/>
	<path fill="#FFFFFF" d="M186.658,253.179l2.877,0.063l4.301-0.109c-0.09,0.267-0.203,0.591-0.341,0.962l-4.032,0.013l-2.928-0.064
		c-1.337-0.025-2.284-0.492-2.845-1.412c-0.332,0.313-0.818,0.855-1.457,1.632l-0.497-1.01c0.714-0.691,1.235-1.188,1.555-1.487
		v-4.09h-1.447v-0.9h2.38v5.183C184.732,252.754,185.542,253.157,186.658,253.179z M183.17,242.671
		c0.618,0.769,1.182,1.536,1.701,2.297c-0.341,0.22-0.64,0.419-0.898,0.606c-0.447-0.778-0.971-1.567-1.58-2.38L183.17,242.671z
		 M185.007,248.116h2.083c0.013-0.635,0.021-1.491,0.021-2.578h-1.533v-0.874h1.533v-2.137h0.97v2.137h2.405v-2.137h0.973v2.137
		h1.797v0.874h-1.797v2.578h2.272v0.872h-2.272v3.696h-0.973v-3.696h-2.497c-0.237,1.649-0.937,2.883-2.096,3.696
		c-0.21-0.238-0.458-0.486-0.739-0.744c0.991-0.624,1.605-1.611,1.84-2.952h-1.987V248.116L185.007,248.116z M188.069,248.116h2.416
		v-2.578h-2.406C188.079,246.931,188.076,247.791,188.069,248.116z"/>
	<path fill="#FFFFFF" d="M197.592,243.192l0.8-0.567c0.908,0.557,1.905,1.991,2.992,4.296c1.513,3.313,3.156,5.336,4.93,6.062
		l-0.85,1.071c-1.772-1.053-3.414-3.273-4.919-6.656c-0.122-0.271-0.241-0.532-0.358-0.778c-0.939,3.218-2.685,5.723-5.242,7.507
		c-0.22-0.322-0.465-0.625-0.741-0.908c2.627-1.656,4.396-4.277,5.308-7.858C198.874,244.293,198.233,243.574,197.592,243.192z"/>
	<path fill="#FFFFFF" d="M206.91,246.329h4.252v-1.542h-3.256v-0.826h3.256v-1.457h0.949v1.457h2.55v0.826h-2.55v1.542h1.23
		c1.252-0.915,2.411-1.92,3.482-3.017l0.74,0.635c-0.915,0.857-1.84,1.646-2.776,2.382h3.736v0.838h-4.841
		c-0.465,0.342-0.932,0.662-1.395,0.972h5.401v0.825h-5.655l-0.516,1.067h4.869c-0.162,1.378-0.279,2.22-0.352,2.526
		c-0.187,1.043-0.827,1.567-1.918,1.567c-0.819,0-1.706-0.02-2.661-0.048c-0.057-0.349-0.143-0.703-0.253-1.058
		c0.97,0.08,1.882,0.124,2.73,0.124c0.634,0,1.018-0.277,1.153-0.827c0.074-0.302,0.154-0.787,0.244-1.458h-4.773v-0.822l0.54-1.07
		h-0.121c-1.249,0.746-2.508,1.388-3.785,1.932c-0.176-0.309-0.37-0.599-0.583-0.877c1.991-0.805,3.833-1.746,5.515-2.852h-5.209
		v-0.84H206.91L206.91,246.329z"/>
	<path fill="#FFFFFF" d="M222.871,250.215c0.04,0.454,0.083,0.847,0.133,1.177c-0.543,0.521-1.087,1.055-1.631,1.618
		c-0.249,0.261-0.46,0.507-0.63,0.738l-0.681-0.774c0.285-0.317,0.426-0.708,0.426-1.166v-4.472h-1.411v-0.861h2.333v5.222
		C221.85,251.275,222.336,250.78,222.871,250.215z M220.271,242.76c0.728,0.709,1.367,1.383,1.918,2.013l-0.802,0.695
		c-0.509-0.674-1.114-1.368-1.811-2.088L220.271,242.76z M222.409,252.685c0.611-0.084,1.252-0.177,1.92-0.285v-3.766h-1.738v-0.859
		h4.203v0.859h-1.568v3.629c0.637-0.105,1.3-0.221,1.982-0.346c-0.016,0.321-0.023,0.639-0.023,0.946
		c-1.774,0.281-3.283,0.538-4.529,0.764L222.409,252.685z M222.628,244.881h4.434c-0.008-0.748-0.011-1.563-0.011-2.44h0.958
		c-0.016,0.961-0.021,1.779-0.013,2.44h3.001v0.887h-2.98c0.081,3.428,0.464,5.756,1.147,6.998c0.252,0.42,0.462,0.63,0.632,0.63
		c0.139,0,0.236-0.16,0.293-0.485c0.082-0.492,0.14-1.139,0.183-1.934c0.348,0.137,0.654,0.244,0.911,0.317
		c-0.103,0.914-0.206,1.612-0.301,2.093c-0.132,0.675-0.471,1.021-1.023,1.021c-0.451,0-0.902-0.315-1.349-0.938
		c-0.824-1.201-1.298-3.766-1.42-7.703h-4.458v-0.887h-0.002L222.628,244.881L222.628,244.881z M228.469,243.292l0.562-0.58
		c0.646,0.476,1.162,0.897,1.544,1.26l-0.669,0.682C229.458,244.173,228.983,243.721,228.469,243.292z"/>
</g>
<g>
	<g>
		<g>
			<path fill="#A5A5A5" d="M187.589,192.403c-3.444-3.888-3.596-8.125-0.464-11.143c2.816-2.708,7.292-2.694,10.149,0.021
				c3.1,2.949,2.938,7.174-0.596,11.263c0.219,0.133,0.47,0.254,0.685,0.422c3.987,3.037,5.479,7.26,5.722,12.073
				c0.067,1.209-0.574,1.781-1.77,1.781c-6.09-0.008-12.185,0.017-18.273-0.016c-1.366-0.002-1.82-0.564-1.726-2.07
				c0.3-4.816,1.882-9.004,5.942-11.955C187.368,192.705,187.44,192.577,187.589,192.403z"/>
			<path fill="#A5A5A5" d="M215.291,178.317c-0.002,1.479,0.011,2.955-0.005,4.43c-0.014,0.879-0.342,1.582-1.353,1.557
				c-0.979-0.021-1.307-0.692-1.306-1.598c0.007-2.72,0.01-5.44-0.004-8.158c-0.009-1.564-0.385-1.935-1.976-1.951
				c-2.63-0.021-5.257-0.019-7.884-0.008c-0.964,0.008-1.88-0.193-1.891-1.318c-0.013-1.121,0.876-1.378,1.854-1.371
				c2.769,0.009,5.531-0.027,8.296,0.013c2.607,0.039,4.182,1.631,4.259,4.259C215.323,175.551,215.291,176.937,215.291,178.317z"/>
			<path fill="#A5A5A5" d="M177.531,169.909c1.383-0.009,2.765,0,4.146-0.009c0.979-0.005,1.837,0.266,1.818,1.394
				c-0.017,1.053-0.848,1.295-1.771,1.292c-2.669-0.001-5.339-0.011-8.011,0.012c-1.575,0.016-1.938,0.383-1.946,1.984
				c-0.017,2.624-0.013,5.25-0.001,7.875c0.002,0.958-0.167,1.846-1.341,1.845c-1.18-0.005-1.327-0.929-1.327-1.871
				c0.003-2.762-0.029-5.528,0.011-8.283c0.043-2.607,1.656-4.182,4.277-4.24C174.766,169.878,176.148,169.909,177.531,169.909z"/>
			<path fill="#A5A5A5" d="M206.946,216.076c-1.43,0-2.859-0.013-4.291,0.007c-0.932,0.018-1.761-0.237-1.783-1.274
				c-0.022-1.155,0.864-1.353,1.839-1.346c2.628,0.02,5.256,0.02,7.885,0.003c1.622-0.014,2.018-0.431,2.024-2.076
				c0.013-2.623,0.013-5.25,0-7.886c-0.006-0.978,0.233-1.83,1.38-1.808c1.088,0.015,1.285,0.885,1.287,1.779
				c0.006,2.812,0.046,5.628-0.017,8.441c-0.059,2.64-1.638,4.118-4.316,4.156C209.617,216.096,208.282,216.076,206.946,216.076z"/>
			<path fill="#A5A5A5" d="M177.295,216.069c-1.424,0-2.852,0.04-4.277-0.006c-2.19-0.089-3.795-1.538-3.874-3.731
				c-0.109-3.036-0.095-6.083,0.019-9.122c0.021-0.526,0.715-1.366,1.221-1.472c0.926-0.194,1.362,0.587,1.364,1.489
				c0.016,2.633,0.005,5.251,0.016,7.878c0.003,2.02,0.325,2.351,2.299,2.366c2.533,0,5.068,0.01,7.602-0.012
				c0.976-0.01,1.852,0.184,1.824,1.35c-0.021,1.066-0.854,1.285-1.778,1.275c-1.471-0.017-2.944-0.011-4.417-0.011
				C177.295,216.076,177.295,216.073,177.295,216.069z"/>
		</g>
	</g>
</g>
<path opacity="0.8" fill="#DCF1F9" enable-background="new    " d="M416.055,353.417c41.469,0,75.084,4.697,75.084,10.488
	c0,5.796-33.615,10.492-75.084,10.492c-41.471,0-75.088-4.696-75.088-10.492c0-1.005,1.018-1.979,2.914-2.903
	C352.895,356.621,381.793,353.417,416.055,353.417z"/>
<g>
	<g>
		<path fill="#128BEB" d="M482.695,354.206c5.713,3.706,7.859,5.638,10.064,6.404c4.896-1.918,9.127-4.696,12.689-7.738
			c-8.613-1.012-12.625-4.668-12.625-4.668c4.775,2.801,10.955,3.288,14.125,3.338c8.574-7.9,12.832-16.888,12.832-16.888
			c-3.451-0.967-6.686-1.714-9.736-2.269c-4.625,3.023-9.74,7.615-9.74,7.615c1.863-2.623,5.281-5.755,7.838-7.936
			c-4.441-0.7-8.484-0.966-12.225-0.859c-4.844,2.936-11.596,9.861-11.596,9.861c2.014-3.291,6.221-7.45,8.609-9.692
			c-6.492,0.553-12.102,2.278-17.438,4.797c-3.176,3.633-5.992,7.681-5.992,7.681c0.805-2.005,2.25-4.388,3.709-6.55
			c-5.943,3.087-11.662,7.119-18.053,11.559l-4.258,5.174l7.693,4.426c12.26,5.619,22.656,5.753,31.207,3.177
			C488.395,358.863,482.695,354.206,482.695,354.206z"/>
		<path fill="#0F6ECD" d="M453.025,353.637c2.404,0.079,4.803-0.158,7.17-0.544c2.371-0.38,4.715-0.89,7.043-1.453
			c4.658-1.122,9.258-2.462,13.857-3.816c4.594-1.35,9.166-2.823,13.834-3.986c2.334-0.582,4.678-1.131,7.043-1.601
			c2.363-0.479,4.746-0.874,7.145-1.145l0.021,0.111c-4.67,1.138-9.279,2.399-13.891,3.701c-4.604,1.313-9.25,2.51-13.883,3.771
			c-4.633,1.248-9.285,2.487-13.988,3.504c-2.355,0.496-4.732,0.935-7.127,1.244c-2.391,0.312-4.82,0.481-7.234,0.324
			L453.025,353.637z"/>
	</g>
	<g>
		<g>
			<path fill="#55ABE5" d="M498.031,332.31c1.008-0.738,1.98-1.494,2.922-2.26L498.031,332.31z"/>
			<path fill="#55ABE5" d="M491.092,332.854l9.895-2.836c4.662-3.813,8.451-7.88,11.148-11.313
				c-3.639-1.924-12.34-0.367-12.34-0.367c8.762-2.256,11.697-2.023,14.568-2.754c3.52-5.394,4.08-12.229,5.338-17.87
				c-9.648,4.906-12.297,5.514-12.297,5.514c5.955-2.422,9.488-5.802,12.785-7.943c2.574-14.188-1.385-20.001-1.385-20.001
				c-4.316,1.381-13.459,5.682-17.025,7.216c-2.367,6.36-3.998,14.697-3.998,14.697c-0.156-4.031,0.881-9.668,1.791-13.718
				c-5.123,2.343-4.262,2.019-8.018,4.72c-2.664,6.427-4.135,18.332-4.135,18.332c-0.529-4.828,0.512-12.087,1.195-16.084
				c-6.238,5.076-10.641,10.756-14.137,17.086c-0.391,5.993-0.094,12.167-0.094,12.167c-0.754-2.647-1.152-6.136-1.357-9.407
				c-3.67,7.343-6.367,15.513-9.428,24.576l-0.289,8.351l11.41-0.701c8.816-1.354,16.715-5.376,23.223-10.135L491.092,332.854z"/>
		</g>
		<path fill="#B1E1FC" d="M478.779,329.868c-2.031,2.15-4.117,4.251-6.34,6.235c-2.213,1.98-4.574,3.836-7.178,5.344l-0.082-0.121
			c2.537-1.582,4.816-3.49,6.943-5.531c2.135-2.039,4.145-4.192,6.09-6.396c3.904-4.395,7.576-8.979,11.229-13.573
			c3.66-4.598,7.188-9.295,11.07-13.743c1.939-2.222,3.914-4.423,5.971-6.55c2.055-2.136,4.193-4.195,6.447-6.139l0.105,0.098
			c-3.898,4.422-7.643,8.936-11.352,13.485c-3.695,4.556-7.529,9.026-11.293,13.55C486.615,321.041,482.816,325.547,478.779,329.868
			z"/>
	</g>
	<path fill="#128BEB" d="M486.791,312.404c-0.457,0.646-0.943,1.285-1.451,1.925L486.791,312.404z M485.297,314.386
		c-3.285,4.118-7.588,8-12.961,10.334l-7.143,2.354l-1.338-5.365c0.305-6.28,0.537-11.935,1.543-17.223
		c0.725,2.046,1.613,4.202,2.576,5.766c0,0-1.311-3.884-2.154-7.766c1.076-4.613,2.85-8.962,5.904-13.238
		c0.291,2.66,0.949,7.454,2.164,10.44c0,0-1.227-7.825-0.697-12.364c1.904-2.345,1.414-1.996,4.254-4.343
		c0.158,2.729,0.52,6.494,1.355,9.034c0,0-0.482-5.582-0.127-10.023c1.996-1.574,7.041-5.838,9.543-7.438
		c0,0,3.582,3.04,4.523,12.503c-1.713,1.913-3.352,4.655-6.711,7.189c0,0,1.58-0.825,6.84-5.561
		c0.225,3.801,1.111,8.244-0.152,12.267c-1.699,0.945-3.611,1.285-8.785,4.188c0,0,5.264-2.442,7.932-1.828
		c-1.094,2.64-2.771,5.862-5.049,9.069l-5.793,3.457L485.297,314.386z"/>
	<path fill="#0F6ECD" d="M477.602,305.554c1.578-3.509,3.209-6.991,4.736-10.515c1.537-3.517,3.102-7.014,4.783-10.482l-0.086-0.043
		c-1.084,1.615-2.072,3.285-2.994,4.987c-0.926,1.7-1.783,3.429-2.617,5.164c-1.662,3.478-3.059,7.064-4.557,10.599
		c-1.494,3.534-3,7.069-4.689,10.516c-0.842,1.731-1.73,3.437-2.719,5.089c-0.99,1.657-2.096,3.255-3.424,4.684l0.072,0.062
		c1.387-1.394,2.555-2.97,3.604-4.601c1.055-1.632,2.006-3.318,2.908-5.026C474.412,312.565,476.014,309.059,477.602,305.554z"/>
</g>
<g>
	<g>
		<path fill="#FCFCFC" d="M382.063,250.066h-18.365c-0.789,0-1.43-0.595-1.43-1.328v-17.04h2.857v15.713h16.938V250.066
			L382.063,250.066z"/>
	</g>
	<g>
		<path fill="#FCFCFC" d="M365.129,190.57h-2.861v-17.037c0-0.733,0.641-1.329,1.432-1.329h18.365v2.654h-16.936V190.57
			L365.129,190.57z"/>
	</g>
	<g>
		<path fill="#FCFCFC" d="M446.203,190.58h-2.861v-15.72h-16.943v-2.653h18.373c0.789,0,1.432,0.593,1.432,1.327V190.58
			L446.203,190.58z"/>
	</g>
	<g>
		<path fill="#FCFCFC" d="M444.771,250.066h-18.373v-2.655h16.943v-15.717h2.861v17.042
			C446.203,249.474,445.561,250.066,444.771,250.066z"/>
	</g>
</g>
<g>
	<linearGradient id="SVGID_3_" gradientUnits="userSpaceOnUse" x1="416.0293" y1="143.6147" x2="416.0293" y2="359.0874">
		<stop  offset="0" style="stop-color:#128BEB"/>
		<stop  offset="1" style="stop-color:#126BEB"/>
	</linearGradient>
	<path fill="url(#SVGID_3_)" d="M453.795,359.087h-75.531c-10.209,0-18.482-8.275-18.482-18.486V162.1
		c0-10.21,8.273-18.485,18.482-18.485h75.531c10.209,0,18.482,8.275,18.482,18.485v178.5
		C472.277,350.812,464.004,359.087,453.795,359.087z"/>
	<path fill="#FFFFFF" d="M422.068,351.383h-12.076c-2.795,0-5.063-2.265-5.063-5.061l0,0c0-2.795,2.268-5.059,5.063-5.059h12.076
		c2.793,0,5.061,2.264,5.061,5.059l0,0C427.129,349.118,424.861,351.383,422.068,351.383z"/>
	<path fill="#F5FCFF" d="M364.271,164.706V324.48c0,5.638,2.402,10.206,5.361,10.206h92.793c2.961,0,5.361-4.568,5.361-10.206
		V164.706H364.271z"/>
	<g>
		<path fill="#333333" d="M391.115,182.928c0.016,0.274,0.035,0.501,0.055,0.686c-0.84,0.525-1.537,0.985-2.084,1.373l-0.377-0.538
			c0.184-0.157,0.277-0.396,0.277-0.716v-3.126h-1.123v-0.568h1.754v3.834C390.074,183.597,390.572,183.281,391.115,182.928z
			 M388.668,177.474c0.574,0.589,0.99,1.027,1.248,1.312l-0.553,0.465c-0.332-0.438-0.723-0.888-1.176-1.357L388.668,177.474z
			 M390.391,180.087h2.295v-2.715h0.68v2.715h2.311v0.567h-2.311v4.451h-0.68v-4.451h-2.295V180.087z"/>
		<path fill="#333333" d="M397.041,179.359h1.313c-0.197-0.24-0.391-0.465-0.584-0.677l0.281-0.206h-0.662
			c-0.311,0.392-0.664,0.757-1.064,1.089c-0.115-0.131-0.248-0.265-0.395-0.402c0.645-0.504,1.156-1.121,1.529-1.846h0.672
			c-0.123,0.24-0.26,0.475-0.41,0.702h2.297v0.457h-1.775c0.188,0.192,0.379,0.392,0.566,0.602l-0.373,0.282h3.637
			c-0.199-0.23-0.422-0.457-0.668-0.677l0.275-0.206h-0.787c-0.207,0.317-0.422,0.604-0.648,0.852
			c-0.135-0.121-0.295-0.245-0.48-0.37c0.447-0.469,0.816-1.015,1.105-1.641h0.68c-0.121,0.247-0.246,0.481-0.373,0.702h2.506v0.457
			h-1.801c0.225,0.187,0.432,0.379,0.623,0.577l-0.385,0.306h0.611v3.554h-0.551v-0.263h-4.586v0.263h-0.553V179.359z
			 M396.008,183.299h2.146c0.021-0.15,0.033-0.317,0.033-0.499h0.576c0,0.178-0.012,0.344-0.029,0.499h2.586v-0.491h0.584v0.491
			h1.869v0.488h-1.869v1.327h-0.584v-1.327h-2.668c-0.189,0.709-0.813,1.172-1.871,1.398c-0.098-0.164-0.215-0.337-0.348-0.521
			c0.873-0.148,1.408-0.441,1.602-0.877h-2.027V183.299z M402.18,179.8h-4.586v0.532h4.586V179.8z M397.594,181.269h4.586v-0.527
			h-4.586V181.269z M397.594,182.21h4.586v-0.528h-4.586V182.21z"/>
		<path fill="#333333" d="M404.002,182.297c0.59-0.881,1.01-1.828,1.26-2.843h-1.18v-0.535h1.229v-1.555h0.57v1.555h1.104v0.535
			h-1.104v1.312l0.316-0.316c0.404,0.368,0.723,0.669,0.953,0.9l-0.426,0.434c-0.324-0.358-0.604-0.653-0.844-0.89v4.167h-0.57
			v-4.23c-0.277,0.891-0.629,1.611-1.047,2.16C404.18,182.754,404.094,182.523,404.002,182.297z M408.162,178.468v2.613
			c0,1.882-0.473,3.248-1.414,4.096c-0.146-0.18-0.301-0.357-0.465-0.536c0.832-0.733,1.248-1.872,1.248-3.418v-3.355h2.936v5.936
			c0,0.264,0.092,0.393,0.275,0.393h0.18c0.17,0,0.277-0.146,0.324-0.439c0.053-0.407,0.09-0.845,0.111-1.313
			c0.184,0.091,0.383,0.175,0.6,0.252c-0.045,0.523-0.096,0.948-0.141,1.281c-0.084,0.556-0.354,0.835-0.807,0.835h-0.416
			c-0.506,0-0.76-0.301-0.76-0.899v-5.446H408.162z"/>
		<path fill="#333333" d="M412.037,183.813c0.404-0.099,0.795-0.195,1.176-0.292v-2.391h-0.988v-0.553h0.988v-1.972h-1.066v-0.553
			h2.715v0.553h-1.066v1.972h1.002v0.553h-1.002v2.231c0.348-0.097,0.684-0.194,1.012-0.292c0.025,0.239,0.055,0.443,0.086,0.616
			c-0.898,0.244-1.779,0.497-2.643,0.766L412.037,183.813z M414.543,184.277h2.473v-1.136h-2.012v-0.552h2.012v-1.041h-1.264v0.292
			h-0.582v-4.074h4.277v4.074h-0.584v-0.292H417.6v1.041h2.012v0.552H417.6v1.136h2.359v0.553h-5.416V184.277z M415.752,179.392
			h1.264v-1.088h-1.264V179.392z M415.752,181.01h1.264v-1.097h-1.264V181.01z M418.863,178.304H417.6v1.088h1.264V178.304z
			 M417.6,181.01h1.264v-1.097H417.6V181.01z"/>
		<path fill="#333333" d="M422.848,183.197c0.018,0.274,0.035,0.5,0.057,0.677c-0.592,0.395-1.117,0.774-1.588,1.136l-0.371-0.526
			c0.18-0.148,0.27-0.374,0.27-0.679v-3.118h-1.027v-0.583h1.641v3.812C422.141,183.704,422.48,183.463,422.848,183.197z
			 M421.143,177.507c0.576,0.587,0.99,1.024,1.246,1.309l-0.553,0.465c-0.332-0.436-0.723-0.89-1.176-1.356L421.143,177.507z
			 M425.635,177.434l-0.104,0.185c0.625,1.108,1.473,1.926,2.541,2.453c-0.152,0.185-0.305,0.382-0.457,0.591
			c-1.043-0.688-1.854-1.518-2.432-2.486c-0.563,0.934-1.385,1.769-2.463,2.51c-0.152-0.223-0.297-0.401-0.432-0.543
			c1.193-0.708,2.063-1.607,2.611-2.709H425.635z M423.504,180.449h0.629v1.658c1.012-0.438,1.836-0.942,2.479-1.515l0.441,0.519
			c-0.814,0.644-1.789,1.193-2.92,1.649v1.034c0,0.348,0.16,0.523,0.475,0.523h1.57c0.379,0,0.598-0.169,0.656-0.505
			c0.068-0.384,0.113-0.801,0.141-1.247c0.168,0.073,0.383,0.149,0.641,0.229c-0.049,0.433-0.107,0.833-0.174,1.207
			c-0.105,0.61-0.516,0.915-1.232,0.915h-1.791c-0.609,0-0.914-0.333-0.914-1.001V180.449z"/>
		<path fill="#333333" d="M428.428,179.859h2.762v-1.004h-2.115v-0.538h2.115v-0.945h0.615v0.945h1.656v0.538h-1.656v1.004h0.801
			c0.814-0.596,1.566-1.249,2.262-1.958l0.48,0.411c-0.596,0.553-1.195,1.069-1.803,1.547h2.428v0.542h-3.146
			c-0.303,0.222-0.605,0.435-0.906,0.632h3.506v0.536h-3.672l-0.336,0.695h3.164c-0.105,0.894-0.182,1.44-0.229,1.642
			c-0.121,0.677-0.537,1.018-1.246,1.018c-0.533,0-1.109-0.012-1.729-0.032c-0.037-0.227-0.094-0.455-0.166-0.686
			c0.631,0.052,1.223,0.079,1.775,0.079c0.41,0,0.66-0.179,0.75-0.537c0.047-0.194,0.1-0.51,0.158-0.948h-3.102v-0.535l0.35-0.695
			h-0.076c-0.813,0.483-1.631,0.904-2.461,1.255c-0.113-0.2-0.238-0.39-0.379-0.568c1.295-0.52,2.49-1.138,3.582-1.855h-3.383
			V179.859z"/>
		<path fill="#333333" d="M438.799,182.381c0.023,0.295,0.053,0.55,0.086,0.768c-0.355,0.336-0.707,0.686-1.059,1.048
			c-0.162,0.169-0.301,0.329-0.41,0.482l-0.443-0.505c0.186-0.205,0.275-0.457,0.275-0.759v-2.901h-0.914v-0.561h1.516v3.394
			C438.133,183.072,438.451,182.752,438.799,182.381z M437.107,177.538c0.475,0.462,0.889,0.901,1.248,1.31l-0.52,0.451
			c-0.334-0.438-0.725-0.89-1.178-1.358L437.107,177.538z M438.496,183.984c0.398-0.052,0.814-0.113,1.248-0.18v-2.447h-1.129
			v-0.561h2.729v0.561h-1.016v2.355c0.414-0.067,0.842-0.143,1.287-0.224c-0.012,0.208-0.016,0.415-0.016,0.614
			c-1.152,0.185-2.135,0.351-2.947,0.498L438.496,183.984z M438.639,178.919h2.881c-0.006-0.486-0.008-1.015-0.008-1.588h0.623
			c-0.012,0.629-0.014,1.156-0.008,1.588h1.947v0.575h-1.936c0.053,2.226,0.303,3.742,0.746,4.547
			c0.162,0.273,0.299,0.409,0.41,0.409c0.088,0,0.152-0.104,0.189-0.314c0.053-0.321,0.092-0.739,0.119-1.254
			c0.225,0.09,0.422,0.157,0.592,0.205c-0.068,0.594-0.135,1.046-0.197,1.357c-0.084,0.441-0.307,0.662-0.664,0.662
			c-0.295,0-0.588-0.202-0.875-0.607c-0.537-0.779-0.844-2.446-0.922-5.004h-2.898V178.919z M442.434,177.887l0.365-0.38
			c0.42,0.31,0.754,0.584,1.002,0.819l-0.438,0.442C443.076,178.459,442.766,178.164,442.434,177.887z"/>
	</g>
	<g>
		<path fill="#FFFFFF" d="M435.877,154.825c0,0.652-0.529,1.179-1.18,1.179h-32.09c-0.652,0-1.182-0.527-1.182-1.179l0,0
			c0-0.653,0.529-1.18,1.182-1.18h32.09C435.348,153.645,435.877,154.172,435.877,154.825L435.877,154.825z"/>
		<path fill="#FFFFFF" d="M398.994,154.825c0,0.775-0.631,1.404-1.406,1.404c-0.777,0-1.406-0.629-1.406-1.404
			c0-0.779,0.629-1.408,1.406-1.408C398.363,153.417,398.994,154.046,398.994,154.825z"/>
	</g>
	<g>
		<path fill="#333333" d="M387.914,314.326c2.506-1.513,3.83-4.17,3.973-7.968h0.758c-0.031,0.643-0.09,1.256-0.18,1.839
			c0.711,3.005,2.049,4.981,4.016,5.929c-0.242,0.278-0.455,0.539-0.639,0.785c-1.707-1.009-2.922-2.794-3.648-5.355
			c-0.629,2.474-1.873,4.293-3.736,5.455C388.303,314.789,388.123,314.561,387.914,314.326z"/>
		<path fill="#333333" d="M403.012,306.35l-0.146,0.261c0.633,1.136,1.467,1.981,2.508,2.542c-0.098,0.121-0.232,0.32-0.404,0.604
			c-1.012-0.644-1.836-1.503-2.473-2.578c-0.502,0.829-1.305,1.719-2.414,2.667c-0.166-0.215-0.313-0.396-0.439-0.54v4.759
			c0,0.601-0.279,0.902-0.838,0.902c-0.264,0-0.506-0.008-0.73-0.021c-0.016-0.191-0.051-0.414-0.104-0.664
			c0.281,0.027,0.504,0.044,0.664,0.044c0.258,0,0.387-0.143,0.387-0.424v-2.046h-1.127c-0.049,1.371-0.299,2.466-0.76,3.288
			c-0.15-0.172-0.313-0.328-0.492-0.468c0.426-0.739,0.637-1.82,0.637-3.244v-4.725h2.363v2.552c1.195-0.87,2.045-1.843,2.551-2.91
			H403.012z M399.021,307.306H397.9v1.676h1.121V307.306z M397.9,311.262h1.121v-1.686H397.9V311.262z M399.945,314.02h3.033
			c0.418-1.118,0.801-2.253,1.146-3.408l0.645,0.243c-0.34,1.017-0.715,2.072-1.129,3.165h1.475v0.622h-5.17V314.02z
			 M400.246,311.044l0.586-0.189c0.285,0.884,0.531,1.693,0.732,2.426l-0.629,0.216C400.746,312.66,400.516,311.844,400.246,311.044
			z M400.625,309.531h3.67v0.622h-3.67V309.531z M401.85,310.748l0.57-0.137c0.221,0.818,0.416,1.632,0.584,2.444l-0.621,0.152
			C402.244,312.451,402.066,311.631,401.85,310.748z"/>
		<path fill="#333333" d="M405.547,311.938c0.613-1.021,1.043-2.11,1.291-3.263h-1.232v-0.632h1.242v-1.792h0.645v1.792h0.982v0.632
			h-0.982v1.587l0.268-0.298c0.369,0.324,0.711,0.647,1.025,0.974l-0.439,0.459c-0.283-0.318-0.564-0.616-0.854-0.893v4.633h-0.645
			v-4.777c-0.295,0.985-0.637,1.776-1.025,2.372C405.746,312.472,405.654,312.206,405.547,311.938z M408.268,312.792
			c1.143-0.618,2.102-1.353,2.879-2.198c-0.563,0.061-1.086,0.117-1.568,0.171c-0.213,0.024-0.41,0.066-0.594,0.126l-0.318-0.657
			c0.234-0.133,0.418-0.289,0.551-0.469c0.361-0.462,0.715-0.991,1.059-1.587h-1.637v-0.648h2.646
			c-0.236-0.366-0.455-0.694-0.654-0.981l0.561-0.371c0.219,0.285,0.469,0.628,0.756,1.037l-0.455,0.315h2.637v0.648h-3.051
			c-0.418,0.669-0.854,1.295-1.301,1.885c0.631-0.036,1.271-0.076,1.922-0.118c0.326-0.427,0.615-0.881,0.861-1.358l0.627,0.35
			c-0.98,1.802-2.457,3.271-4.428,4.409C408.598,313.157,408.436,312.974,408.268,312.792z M408.527,314.569
			c1.965-0.865,3.58-2.278,4.852-4.235l0.586,0.414c-0.494,0.746-1.035,1.416-1.621,2.01c0.66,0.565,1.281,1.117,1.861,1.658
			l-0.525,0.586c-0.539-0.56-1.143-1.153-1.811-1.785c-0.867,0.8-1.828,1.448-2.885,1.949
			C408.875,315.002,408.721,314.804,408.527,314.569z"/>
		<path fill="#333333" d="M414.301,312.396c0.666-0.137,1.4-0.306,2.197-0.505c-0.006,0.24-0.002,0.455,0.008,0.64
			c-0.654,0.145-1.348,0.322-2.076,0.532L414.301,312.396z M415.578,307.954l-0.199,2.479h0.869l0.225-3.037h-1.957v-0.613h2.611
			l-0.268,3.65h0.543c-0.041,1.269-0.078,2.311-0.111,3.127c-0.018,0.913-0.396,1.37-1.139,1.37c-0.309,0-0.676-0.01-1.094-0.026
			c-0.027-0.222-0.066-0.461-0.113-0.713c0.414,0.054,0.783,0.081,1.105,0.081c0.4,0,0.613-0.255,0.637-0.766
			c0.035-0.662,0.063-1.48,0.084-2.462h-2.066l0.275-3.09H415.578z M420.6,306.278l-0.162,0.287c0.693,1.29,1.557,2.232,2.584,2.82
			c-0.184,0.24-0.336,0.451-0.459,0.632c-1.01-0.781-1.834-1.723-2.471-2.82c-0.586,1.088-1.406,2.063-2.455,2.928
			c-0.105-0.156-0.248-0.345-0.432-0.567c1.143-0.827,2.02-1.922,2.629-3.279H420.6z M417.471,314.036h3.113
			c0.412-1.068,0.779-2.187,1.102-3.352l0.654,0.217c-0.338,1.076-0.697,2.121-1.076,3.135h1.518v0.622h-5.311V314.036z
			 M417.912,311.151l0.602-0.194c0.281,0.85,0.518,1.611,0.709,2.277l-0.639,0.227C418.395,312.69,418.168,311.922,417.912,311.151z
			 M418.352,309.594h3.549v0.62h-3.549V309.594z M419.393,310.748l0.613-0.171c0.242,0.899,0.439,1.688,0.594,2.36l-0.629,0.188
			C419.805,312.298,419.613,311.505,419.393,310.748z"/>
		<path fill="#333333" d="M423.797,308.161h3.318v-1.966h0.74v1.966h3.352v4.109H430.5v-0.485h-2.645v3.352h-0.74v-3.352h-2.613
			v0.485h-0.705V308.161z M424.502,311.115h2.613v-2.287h-2.613V311.115z M430.5,308.828h-2.645v2.287h2.645V308.828z"/>
		<path fill="#333333" d="M432.41,313.425c0-0.163,0.053-0.3,0.158-0.41c0.107-0.112,0.238-0.167,0.398-0.167s0.293,0.057,0.4,0.168
			c0.104,0.115,0.158,0.249,0.158,0.409c0,0.155-0.055,0.289-0.158,0.403c-0.107,0.11-0.242,0.167-0.406,0.167
			c-0.158,0-0.289-0.057-0.395-0.167C432.463,313.714,432.41,313.58,432.41,313.425z"/>
		<path fill="#333333" d="M434.533,313.425c0-0.163,0.055-0.3,0.16-0.41c0.107-0.112,0.238-0.167,0.398-0.167
			c0.158,0,0.291,0.057,0.398,0.168c0.107,0.115,0.162,0.249,0.162,0.409c0,0.155-0.055,0.289-0.162,0.403
			c-0.107,0.11-0.24,0.167-0.404,0.167c-0.158,0-0.289-0.057-0.395-0.167C434.586,313.714,434.533,313.58,434.533,313.425z"/>
		<path fill="#333333" d="M436.658,313.425c0-0.163,0.053-0.3,0.16-0.41c0.104-0.112,0.238-0.167,0.395-0.167
			c0.162,0,0.295,0.057,0.402,0.168c0.105,0.115,0.16,0.249,0.16,0.409c0,0.155-0.055,0.289-0.16,0.403
			c-0.107,0.11-0.242,0.167-0.404,0.167c-0.16,0-0.291-0.057-0.396-0.167C436.711,313.714,436.658,313.58,436.658,313.425z"/>
		<path fill="#333333" d="M438.783,313.425c0-0.163,0.053-0.3,0.158-0.41c0.107-0.112,0.24-0.167,0.396-0.167
			c0.162,0,0.295,0.057,0.398,0.168c0.109,0.115,0.162,0.249,0.162,0.409c0,0.155-0.053,0.289-0.162,0.403
			c-0.104,0.11-0.238,0.167-0.402,0.167c-0.156,0-0.289-0.057-0.395-0.167C438.836,313.714,438.783,313.58,438.783,313.425z"/>
		<path fill="#333333" d="M440.906,313.425c0-0.163,0.053-0.3,0.16-0.41c0.105-0.112,0.238-0.167,0.395-0.167
			c0.16,0,0.297,0.057,0.402,0.168c0.105,0.115,0.158,0.249,0.158,0.409c0,0.155-0.053,0.289-0.158,0.403
			c-0.105,0.11-0.242,0.167-0.406,0.167c-0.158,0-0.289-0.057-0.395-0.167C440.959,313.714,440.906,313.58,440.906,313.425z"/>
		<path fill="#333333" d="M443.031,313.425c0-0.163,0.053-0.3,0.156-0.41c0.109-0.112,0.24-0.167,0.4-0.167
			c0.158,0,0.293,0.057,0.398,0.168c0.107,0.115,0.16,0.249,0.16,0.409c0,0.155-0.053,0.289-0.16,0.403
			c-0.105,0.11-0.242,0.167-0.404,0.167c-0.158,0-0.289-0.057-0.396-0.167C443.084,313.714,443.031,313.58,443.031,313.425z"/>
	</g>
	<g>
		<linearGradient id="SVGID_4_" gradientUnits="userSpaceOnUse" x1="416.1201" y1="258.8613" x2="416.1201" y2="287.3233">
			<stop  offset="0" style="stop-color:#FAD6C7"/>
			<stop  offset="1" style="stop-color:#E4857F"/>
		</linearGradient>
		<rect x="409.152" y="258.861" fill="url(#SVGID_4_)" width="13.936" height="15.281"/>
		<linearGradient id="SVGID_5_" gradientUnits="userSpaceOnUse" x1="388.6895" y1="276.0938" x2="443.3691" y2="276.0938">
			<stop  offset="0" style="stop-color:#F6F6F6"/>
			<stop  offset="1" style="stop-color:#DCCCCA"/>
		</linearGradient>
		<path fill="url(#SVGID_5_)" d="M437.871,272.676c-3.223-3.732-8.068-4.543-12.496-5.683h-2.377c0,3.005-3.119,5.441-6.967,5.441
			c-3.85,0-6.971-2.437-6.971-5.441h-2.371c-4.428,1.14-9.275,1.95-12.5,5.683c-2.01,2.328-5.5,12.519-5.5,12.519h8.441h18.9h18.898
			h8.439C443.369,285.194,439.883,275.004,437.871,272.676z"/>
		<linearGradient id="SVGID_6_" gradientUnits="userSpaceOnUse" x1="433.3457" y1="235.5713" x2="433.3457" y2="270.5243">
			<stop  offset="0" style="stop-color:#FAD6C7"/>
			<stop  offset="1" style="stop-color:#E4857F"/>
		</linearGradient>
		<path fill="url(#SVGID_6_)" d="M436.951,241.306c0.297-2.88-1.074-5.435-3.064-5.711c-1.992-0.272-3.846,1.842-4.145,4.721
			c-0.301,2.88,1.072,5.436,3.066,5.708C434.797,246.298,436.652,244.185,436.951,241.306z"/>
		<linearGradient id="SVGID_7_" gradientUnits="userSpaceOnUse" x1="416.1182" y1="215.1357" x2="416.1182" y2="329.5344">
			<stop  offset="0" style="stop-color:#FAD6C7"/>
			<stop  offset="1" style="stop-color:#E4857F"/>
		</linearGradient>
		<path fill="url(#SVGID_7_)" d="M416.117,215.136c-6.766,0-17.465,3.847-17.465,21.871c0,10.408,3.391,17.227,4.871,19.11
			c1.359,1.737,9.006,5.433,12.594,5.433s11.236-3.695,12.598-5.433c1.477-1.884,4.869-8.702,4.869-19.11
			C433.584,218.982,422.885,215.136,416.117,215.136z"/>
		<linearGradient id="SVGID_8_" gradientUnits="userSpaceOnUse" x1="398.8896" y1="235.5713" x2="398.8896" y2="270.1449">
			<stop  offset="0" style="stop-color:#FAD6C7"/>
			<stop  offset="1" style="stop-color:#E4857F"/>
		</linearGradient>
		<path fill="url(#SVGID_8_)" d="M395.285,241.306c-0.299-2.88,1.074-5.435,3.064-5.711c1.992-0.272,3.846,1.842,4.145,4.721
			c0.301,2.88-1.074,5.436-3.064,5.708C397.441,246.298,395.582,244.185,395.285,241.306z"/>
		<path fill="#1D1D1B" d="M430.193,238.436c0.73-1.857,2.172-3.048,3.693-2.841c0.004,0.002,0.01,0.002,0.01,0.003
			c0.693-2.136,0.939-4.679-0.006-7.376c-5.039-14.345,0.684-16.906,0.684-16.906s-5.57-0.25-9.896,3.328
			c2.982-4.621,4.326-5.814,4.326-5.814s-6.262-1.341-12.969,5.518c1.49-3.727,3.279-5.624,3.279-5.624s-14.014,0.106-19.082,10.244
			c-2.889,5.777-3.109,12.034-2.412,16.767c0.174-0.064,0.348-0.111,0.529-0.139c0.66-0.089,1.307,0.088,1.883,0.464
			c0-2.188,0-4.12,0-4.423c2.686-1.192,5.516-2.684,5.367-8.646c6.26,0,9.689,0,9.689,0h9.986c0,0-0.447,6.709,4.918,8.348
			C430.193,234.136,430.193,236.603,430.193,238.436z"/>
	</g>
	
		<linearGradient id="SVGID_9_" gradientUnits="userSpaceOnUse" x1="6793.7881" y1="217.2227" x2="6793.7881" y2="288.2074" gradientTransform="matrix(-1 0 0 1 7209.8184 -9.4229)">
		<stop  offset="0" style="stop-color:#FFFFFF;stop-opacity:0.2"/>
		<stop  offset="1" style="stop-color:#128BEB;stop-opacity:0.6"/>
	</linearGradient>
	<rect x="375.051" y="203.556" fill="url(#SVGID_9_)" width="81.959" height="81.927"/>
	<g>
		<g>
			<linearGradient id="SVGID_10_" gradientUnits="userSpaceOnUse" x1="382.7275" y1="187.6733" x2="382.7275" y2="399.708">
				<stop  offset="0" style="stop-color:#128BEB"/>
				<stop  offset="1" style="stop-color:#126BEB"/>
			</linearGradient>
			<path fill="url(#SVGID_10_)" d="M393.008,288.266h-19.072c-0.822,0-1.488-0.663-1.488-1.485v-19.072h2.973v17.588h17.588V288.266
				z"/>
		</g>
		<g>
			<linearGradient id="SVGID_11_" gradientUnits="userSpaceOnUse" x1="382.7275" y1="53.6646" x2="382.7275" y2="267.5413">
				<stop  offset="0" style="stop-color:#128BEB"/>
				<stop  offset="1" style="stop-color:#126BEB"/>
			</linearGradient>
			<path fill="url(#SVGID_11_)" d="M375.42,221.668h-2.973v-19.071c0-0.819,0.666-1.484,1.488-1.484h19.072v2.969H375.42V221.668z"
				/>
		</g>
		<g>
			<linearGradient id="SVGID_12_" gradientUnits="userSpaceOnUse" x1="449.3291" y1="55.7144" x2="449.3291" y2="267.7596">
				<stop  offset="0" style="stop-color:#128BEB"/>
				<stop  offset="1" style="stop-color:#126BEB"/>
			</linearGradient>
			<path fill="url(#SVGID_12_)" d="M459.611,221.676h-2.971v-17.595h-17.594v-2.969h19.078c0.822,0,1.486,0.665,1.486,1.484V221.676
				z"/>
		</g>
		<g>
			<linearGradient id="SVGID_13_" gradientUnits="userSpaceOnUse" x1="449.3291" y1="187.5791" x2="449.3291" y2="401.4559">
				<stop  offset="0" style="stop-color:#128BEB"/>
				<stop  offset="1" style="stop-color:#126BEB"/>
			</linearGradient>
			<path fill="url(#SVGID_13_)" d="M458.125,288.266h-19.078v-2.97h17.594v-17.595h2.971v19.079
				C459.611,287.603,458.947,288.266,458.125,288.266z"/>
		</g>
	</g>
</g>
</svg>
